<svg version="1.1" viewBox="0.0 0.0 32.0 32.0" fill="none" stroke="none" stroke-linecap="square" stroke-miterlimit="10" xmlns:xlink="http://www.w3.org/1999/xlink" xmlns="http://www.w3.org/2000/svg"><clipPath id="p.0"><path d="m0 0l32.0 0l0 32.0l-32.0 0l0 -32.0z" clip-rule="nonzero"/></clipPath><g clip-path="url(#p.0)"><path fill="#000000" fill-opacity="0.0" d="m0 0l32.0 0l0 32.0l-32.0 0z" fill-rule="evenodd"/><path fill="#000000" fill-opacity="0.0" d="m-8.578283 20.104939l28.346457 -28.346457l18.677166 18.677166l-28.346458 28.346458z" fill-rule="evenodd"/><path fill="#ffffff" d="m6.8796797 19.292923q0.49718428 0.49718475 0.46403885 1.082758q-0.04419422 0.5745239 -0.45299053 0.98332024q-0.41984463 0.41984367 -0.99436903 0.46403885q-0.5745239 0.022096634 -1.0717087 -0.47508812q-0.47508717 -0.4750862 -0.44194174 -1.0385628q0.033145905 -0.5855732 0.45299053 -1.0054169q0.40879583 -0.4087963 0.99436855 -0.44194221q0.5745244 -0.044193268 1.049612 0.43089294zm5.601611 5.601612q0.48613644 0.48613548 0.44194221 1.0606594q-0.04419422 0.5745239 -0.45299053 0.98332024q-0.41984463 0.41984558 -0.99436855 0.46403885q-0.56347656 0.033145905 -1.049612 -0.45298958q-0.49718475 -0.49718475 -0.46403885 -1.0606594q0.04419422 -0.57452583 0.46403885 -0.9943695q0.4087963 -0.4087963 0.98332024 -0.4529915q0.5745249 -0.044193268 1.0717087 0.4529915zm-7.833417 0.7844467l6.5517864 -6.5517864l1.4473591 1.4473591l-6.5517864 6.5517864l-1.4473591 -1.4473591zm7.4140043 -7.1709366l14.142136 -14.142136l1.4363098 1.4363103l-14.142135 14.142136l-1.4363108 -1.4363098z" fill-rule="nonzero"/></g></svg>