<svg version="1.1" viewBox="0.0 0.0 100.01837270341207 102.78477690288715" fill="none" stroke="none" stroke-linecap="square" stroke-miterlimit="10" xmlns:xlink="http://www.w3.org/1999/xlink" xmlns="http://www.w3.org/2000/svg"><clipPath id="p.0"><path d="m0 0l100.01837 0l0 102.784775l-100.01837 0l0 -102.784775z" clip-rule="nonzero"/></clipPath><g clip-path="url(#p.0)"><path fill="#000000" fill-opacity="0.0" d="m0 0l100.01837 0l0 102.784775l-100.01837 0z" fill-rule="evenodd"/><path fill="#351c75" d="m12.497958 72.561584l0 0c0 -10.636921 8.622926 -19.259846 19.259842 -19.259846l0 0c5.1080284 0 10.006844 2.0291557 13.618763 5.641079c3.6119232 3.6119194 5.641079 8.510735 5.641079 13.618767l0 0c0 10.636917 -8.622925 19.259842 -19.259842 19.259842l0 0c-10.636917 0 -19.259842 -8.622925 -19.259842 -19.259842z" fill-rule="evenodd"/><path fill="#f9cb9c" d="m8.799795 35.52221l0 0c0 -14.315914 11.605343 -25.921257 25.921259 -25.921257l0 0c6.874748 0 13.467922 2.7309818 18.329098 7.592162c4.8611794 4.8611774 7.592163 11.454351 7.592163 18.329096l0 0c0 14.315918 -11.605343 25.92126 -25.92126 25.92126l0 0c-14.315916 0 -25.921259 -11.605343 -25.921259 -25.92126z" fill-rule="evenodd"/><path fill="#000000" fill-opacity="0.0" d="m-7.304462E-4 68.537636l87.149605 -87.08662l41.133858 41.133858l-87.1496 87.08662z" fill-rule="evenodd"/><path fill="#b7b7b7" d="m48.103905 74.58784q-0.57473373 0.57431793 -1.3482742 0.5962753q-0.7624893 0.010902405 -1.3922577 -0.61885834q-0.6297684 -0.6297684 -0.61857986 -1.391983q0.0222435 -0.7732544 0.5969734 -1.3475647q0.56367874 -0.5632782 1.3261681 -0.5741806q0.7735443 -0.021957397 1.4033089 0.607811q0.6297684 0.6297684 0.6075287 1.4030228q-0.011188507 0.76220703 -0.57486725 1.3254776zm-8.739399 -8.739395q-0.57473373 0.57431793 -1.3372269 0.60731506q-0.7624893 0.010910034 -1.403305 -0.6299057q-0.62976456 -0.6297684 -0.61857605 -1.3919754q0.022239685 -0.7732544 0.5969696 -1.3475723q0.56368256 -0.56327057 1.3261719 -0.5741806q0.7735405 -0.021953583 1.4033089 0.6078148q0.6408119 0.64081573 0.61857224 1.414074q-0.02223587 0.75115967 -0.5859146 1.3144302zm-3.0954666 7.2680664l10.367279 -10.359787l1.7898674 1.7898636l-10.367283 10.359787l-1.7898636 -1.7898636zm11.517563 -11.509239l22.635593 -22.619232l1.7898636 1.7898636l-22.63559 22.619232l-1.7898674 -1.7898636zm22.545101 -22.528805l22.635597 -22.619234l1.7898636 1.7898636l-22.635597 22.619234l-1.7898636 -1.7898636z" fill-rule="nonzero"/><path fill="#351c75" d="m3.88116 99.6527l0 0c4.105568E-4 -6.5923157 5.344639 -11.9362335 11.936956 -11.936264c6.5923166 -3.0517578E-5 11.936591 5.3438416 11.93706 11.936157z" fill-rule="evenodd"/><path fill="#351c75" d="m48.311108 92.49271l0 0c-1.8699417 -6.296921 0.09718704 -12.445068 4.3936996 -13.732285l0 0c2.0632591 -0.6181412 4.398731 -0.009735107 6.4926414 1.6913834c2.0939102 1.7011185 3.7747383 4.3555984 4.672714 7.3794785l0 0c1.8699417 6.296921 -0.09718704 12.445068 -4.3936996 13.732285l0 0c-4.2965164 1.2872162 -9.295414 -2.7739487 -11.165356 -9.070862z" fill-rule="evenodd"/><path fill="#351c75" d="m45.051823 2.7764204l0 0c2.6266136 3.6616046 1.78759 8.7592125 -1.8740158 11.385827c-3.661602 2.6266146 -8.7592125 1.7875881 -11.385826 -1.8740158c-2.6266136 -3.661605 -1.7875881 -8.7592125 1.8740158 -11.385827l4.755905 6.6299214z" fill-rule="evenodd"/><path fill="#351c75" d="m1.9229627 31.932236l0 0c2.1525903 -13.522303 15.872269 -23.258705 31.367706 -22.260628c15.495438 0.9980793 27.453106 12.388389 27.339169 26.042004z" fill-rule="evenodd"/><path fill="#351c75" d="m35.446445 9.731766l0 0c14.079544 0.32683277 25.322224 11.835581 25.319702 25.918915c-0.0025177002 14.08334 -11.249317 25.588062 -25.328976 25.909855z" fill-rule="evenodd"/><path fill="#000000" fill-opacity="0.0" d="m10.777713 17.419664l26.267715 3.1811028l-4.629921 38.48819l-26.267717 -3.1811028z" fill-rule="evenodd"/><path fill="#000000" d="m22.53362 39.399315q-2.9006805 -0.3512802 -4.497574 0.8875923l0.12129974 -1.0083542q1.0252914 -0.80444336 2.080204 -1.0701714q1.0722885 -0.2793579 2.4218044 -0.11592865q1.3650265 0.1653099 2.3247643 0.69075394q0.97711754 0.5118103 1.7666912 1.5360413l-0.12129974 1.0083542q-1.2417431 -1.5826416 -4.09589 -1.9282875z" fill-rule="nonzero"/><path fill="#000000" fill-opacity="0.0" d="m33.0341 71.372574l-26.425198 0.9763794l-1.4488192 -38.740158l26.425198 -0.9763794z" fill-rule="evenodd"/><path fill="#000000" d="m17.984324 51.507843q2.9198818 -0.10788727 4.3032627 -1.5818443l0.037956238 1.0149155q-0.88679314 0.95526886 -1.8871269 1.3831215q-1.0153656 0.4440422 -2.3738136 0.494236q-1.3740616 0.050769806 -2.4041767 -0.31769562q-1.045145 -0.35227585 -1.9852295 -1.2400436l-0.037956238 -1.0149155q1.4740438 1.3683815 4.347084 1.2622261z" fill-rule="nonzero"/></g></svg>